<svg width="172" height="45" viewBox="0 0 172 45" fill="none" xmlns="http://www.w3.org/2000/svg">
<path d="M37.5495 5.7612C34.2668 2.21464 29.6091 0 24.4431 0C15.9558 0 8.84165 5.9772 6.94225 14.0202L9.36864 13.3363C9.47479 13.3065 9.58469 13.3596 9.62895 13.4623C9.67321 13.5649 9.63682 13.6836 9.54305 13.7424C7.61026 14.9602 5.63434 16.4138 3.96899 17.8557C-2.18871 23.2974 -1.14823 28.8247 8.16238 25.0602C14.1325 22.7784 11.9503 20.7424 11.1769 19.8451C11.1146 19.773 11.0869 19.6879 11.094 19.5921C11.1011 19.4963 11.1413 19.4166 11.2133 19.3547C11.7485 18.8956 13.0759 19.3647 13.8103 19.549C14.8887 19.8199 15.9656 20.1188 17.0368 20.421C17.1381 20.4497 17.2371 20.4321 17.323 20.3703L23.2053 16.131C23.2916 16.0688 23.3408 15.9799 23.3475 15.8727C23.3546 15.7654 23.3171 15.6704 23.2399 15.5975C22.3775 14.7839 19.9283 12.6704 19.4864 12.2876C19.267 12.0975 18.5206 11.464 17.7292 10.7778C16.9284 10.084 16.0815 9.33637 15.6876 8.94176C15.613 8.86696 15.5788 8.77193 15.5878 8.66584C15.5972 8.55974 15.6475 8.47235 15.7338 8.41205C16.8327 7.64572 19.2558 9.00702 20.1484 9.43674C20.3409 9.52948 20.5337 9.62337 20.7261 9.71801C21.4789 10.0886 22.2335 10.474 22.9904 10.8644C23.0955 10.9186 23.211 10.9156 23.313 10.8557L23.8647 10.5317C24.1318 10.3748 24.4761 10.4687 24.6303 10.7404C24.7331 10.9217 24.7263 11.1377 24.631 11.3083C24.5838 11.3934 24.5736 11.4842 24.6014 11.5781C24.6292 11.6716 24.6869 11.7418 24.7728 11.7861C25.4236 12.1212 26.0755 12.4532 26.7281 12.7757C26.9336 12.8772 27.3095 13.1272 27.5814 13.1989C27.6894 13.2275 27.7948 13.2043 27.8811 13.1321C29.5641 11.7319 32.8847 9.63863 35.056 9.30928C36.2626 9.12609 37.4835 9.25203 37.8537 9.99355C37.8594 10.005 37.865 10.0149 37.8717 10.0256C38.3177 10.7225 37.8144 11.8613 37.0552 12.8329C35.6891 14.5816 32.2474 16.4608 30.2141 17.2439C30.1098 17.284 30.0371 17.3653 30.0074 17.4748C29.9328 17.7503 29.9575 18.2064 29.941 18.4384C29.8893 19.1746 29.8458 19.915 29.8056 20.6561C29.8004 20.7538 29.8311 20.8397 29.8968 20.911C29.9624 20.9824 30.0449 21.0191 30.1413 21.0198C30.3341 21.0213 30.5213 21.1232 30.6244 21.3045C30.7786 21.5762 30.6863 21.9266 30.4193 22.0834L29.8675 22.4074C29.7655 22.4674 29.7051 22.5674 29.6987 22.6872C29.641 23.7695 29.5783 24.8465 29.4932 25.9052C29.4126 26.907 29.36 29.7227 28.1579 30.3073C28.0634 30.3531 27.964 30.3539 27.8691 30.3089C27.7742 30.2638 27.7104 30.186 27.6842 30.0829C27.4077 28.9999 26.8403 25.643 26.736 25.0629C26.6313 24.482 26.0571 21.2671 25.7957 20.1005C25.772 19.9955 25.7098 19.9154 25.6152 19.868C25.5207 19.8207 25.4198 19.8192 25.3242 19.8642L18.7738 22.928C18.6781 22.9727 18.614 23.0509 18.5874 23.1547C18.3087 24.2496 18.0251 25.348 17.7164 26.4337C17.5053 27.1772 17.3732 28.8209 16.7067 29.051C16.5342 29.1105 16.3474 28.9964 16.281 28.8235C14.409 23.9619 10.2171 29.5559 11.6923 31.1901C12.2841 31.8457 12.8835 32.5025 13.4878 33.1605C17.0777 37.0684 20.8393 41.0069 24.1813 44.8733C24.2507 44.9534 24.3377 44.9996 24.4427 45C24.5478 45.0004 24.6352 44.9546 24.7049 44.8748C29.851 38.9781 39.3222 30.5989 41.824 22.2723C42.5209 19.9531 42.744 16.8562 42.0831 14.5083C41.8525 13.6893 37.4235 16.112 37.6519 15.583C37.9205 14.9609 46.4862 11.2442 46.3257 7.15265C46.2383 4.92808 42.9214 3.91331 37.5495 5.7612Z" fill="#FF715B"/>
<path fill-rule="evenodd" clip-rule="evenodd" d="M125.837 11.0752L125.906 11.1047C126.342 11.2998 126.661 11.6454 126.827 12.0508C126.993 12.4599 127.004 12.931 126.822 13.3681C126.413 14.4243 125.933 15.7019 125.407 17.099C123.489 22.1981 120.973 28.8883 119.158 32.2099C119.02 32.5427 118.797 32.8141 118.523 33.0017C118.244 33.193 117.912 33.2996 117.565 33.2996C117.208 33.2996 116.873 33.1938 116.591 33.0055C116.309 32.8157 116.083 32.5427 115.945 32.2099C114.429 29.4359 113.128 25.8347 111.827 22.233C110.695 19.1013 109.563 15.9692 108.29 13.3802C108.117 12.9393 108.134 12.4629 108.302 12.05C108.469 11.6394 108.788 11.2885 109.219 11.0964L109.225 11.0949C109.67 10.9036 110.14 10.9187 110.548 11.0881C110.963 11.2613 111.314 11.5963 111.505 12.0364L117.565 26.9285C118.224 25.309 118.914 23.6661 119.608 22.0142C121.011 18.6724 122.429 15.2935 123.646 11.9955C123.826 11.5804 124.162 11.2635 124.557 11.0949C124.954 10.924 125.413 10.9021 125.837 11.0752ZM147.932 29.6954H136.875V23.8612H146.379C146.861 23.8612 147.294 23.6661 147.608 23.3493C147.921 23.0316 148.112 22.5915 148.112 22.0992C148.112 21.619 147.918 21.1744 147.602 20.853C147.291 20.5369 146.86 20.338 146.379 20.338H136.874V14.5855H147.663C148.147 14.5855 148.58 14.3919 148.893 14.0735C149.205 13.7559 149.396 13.315 149.396 12.8235C149.396 12.332 149.205 11.8918 148.891 11.5735C148.579 11.2566 148.146 11.0615 147.664 11.0615H135.143C134.67 11.0615 134.233 11.2589 133.917 11.5803C133.606 11.8964 133.409 12.3342 133.409 12.8235V31.4566C133.409 31.9452 133.605 32.383 133.917 32.6999C134.233 33.0212 134.67 33.2186 135.143 33.2186H147.932C148.415 33.2186 148.848 33.0235 149.16 32.7051C149.473 32.3868 149.665 31.9467 149.665 31.4566C149.665 30.9659 149.474 30.5257 149.161 30.2066C148.848 29.8898 148.415 29.6954 147.932 29.6954ZM78.0396 30.0199C77.6982 29.759 77.2594 29.6252 76.8057 29.6683C76.7558 29.6675 76.6227 29.6585 76.4412 29.5647C76.2091 29.4437 75.9108 29.1926 75.6096 28.6777C75.1908 27.9222 74.717 27.2189 74.2023 26.5754C73.8244 26.102 73.4235 25.6619 73.007 25.2573L73.239 25.162C73.5187 25.041 73.7858 24.9049 74.0387 24.762L74.0431 24.7605C75.1097 24.1389 75.9302 23.2964 76.4836 22.2672C77.034 21.2448 77.3189 20.0447 77.3189 18.6994C77.3189 18.0974 77.2765 17.5167 77.1857 16.9639C77.095 16.4118 76.9537 15.8878 76.7558 15.3985C76.5855 14.9508 76.3787 14.5319 76.1355 14.1477C75.8922 13.7643 75.6059 13.4089 75.2771 13.0837C74.8635 12.664 74.3741 12.292 73.8282 11.9842C73.2941 11.684 72.7109 11.4481 72.0965 11.2938C71.2144 11.0631 70.5353 11.0624 70.423 11.0624H62.4767C61.9933 11.0624 61.5596 11.2567 61.2487 11.5751C60.9348 11.8935 60.7437 12.3336 60.7437 12.8236V31.484C60.7437 31.9642 60.9378 32.4088 61.2539 32.7302C61.5648 33.0463 61.9955 33.2459 62.4767 33.2459C62.9565 33.2459 63.3864 33.0471 63.6996 32.7287C64.0157 32.4073 64.2098 31.9634 64.2098 31.484V14.5856H70.4237C70.4698 14.5856 70.8611 14.5962 71.3691 14.7406C71.6406 14.8177 71.9426 14.9327 72.2364 15.1028C72.4722 15.2465 72.6782 15.4099 72.8567 15.5929C73.0375 15.7766 73.1914 15.9816 73.3209 16.2062C73.4994 16.5207 73.6318 16.8845 73.7203 17.2943C73.811 17.714 73.8549 18.1829 73.8549 18.6986C73.8549 19.4375 73.7359 20.0447 73.4853 20.5347C73.2405 21.0142 72.8642 21.3953 72.3435 21.697C71.8622 21.9731 71.2717 22.1818 70.5739 22.3239C69.8636 22.4676 69.0461 22.5402 68.1223 22.5402C67.6723 22.5402 67.2543 22.7104 66.9426 22.9962C66.6332 23.279 66.4264 23.676 66.3915 24.1336C66.3431 24.5865 66.4666 25.0153 66.7128 25.3533C66.9605 25.6936 67.3331 25.9417 67.7809 26.0286L67.8203 26.0369H67.8546C67.8702 26.0369 68.077 26.105 68.4727 26.2963C68.7144 26.4135 69.0045 26.5739 69.3236 26.7871L69.3266 26.7886C69.964 27.2038 70.5591 27.7173 71.1065 28.3215C71.6622 28.934 72.1687 29.6411 72.6239 30.4328C73.068 31.2178 73.5693 31.7713 74.0572 32.1653C74.5511 32.5638 75.0316 32.8013 75.4244 32.9488L75.44 32.9533C75.7866 33.0667 76.0983 33.1287 76.3616 33.159C76.7967 33.2096 77.1158 33.1779 77.2497 33.159C77.7183 33.0886 78.1178 32.824 78.3818 32.4602C78.6451 32.0965 78.7753 31.6292 78.7061 31.1543C78.6377 30.6809 78.3878 30.2846 78.0396 30.0199ZM170.742 30.2348C170.43 29.9172 169.997 29.7229 169.514 29.7229H159.581V12.8237C159.581 12.3337 159.389 11.8936 159.077 11.5745C158.765 11.2568 158.332 11.0625 157.848 11.0625C157.376 11.0625 156.939 11.2599 156.622 11.5813C156.312 11.8974 156.115 12.3352 156.115 12.8245V31.4848C156.115 31.9718 156.311 32.4089 156.624 32.7281C156.941 33.0494 157.377 33.2468 157.848 33.2468H169.514C169.997 33.2468 170.431 33.0517 170.742 32.7349C171.055 32.4172 171.246 31.9771 171.246 31.4848C171.246 30.9925 171.055 30.5517 170.742 30.2348ZM96.6202 11.3325C96.8916 11.5041 97.1178 11.7529 97.2576 12.0547C98.2589 14.1359 99.2554 16.2231 100.252 18.3111L100.253 18.3116L100.253 18.3125C102.23 22.4533 104.209 26.5973 106.229 30.7052C106.427 31.1256 106.442 31.5937 106.302 32.0089C106.162 32.4233 105.866 32.7878 105.445 33.0018L105.408 33.0215C104.977 33.24 104.508 33.2544 104.096 33.1122C103.684 32.9708 103.326 32.6706 103.116 32.26C102.659 31.3317 102.215 30.3898 101.772 29.4494L101.772 29.4493L101.772 29.4493L101.772 29.4493C101.545 28.9695 101.319 28.49 101.092 28.0131C100.481 27.8482 99.8528 27.7529 99.2049 27.7295C98.4961 27.7038 97.7604 27.7635 96.9988 27.9072C96.2862 28.038 95.558 28.2376 94.8134 28.5069C94.0703 28.7753 93.3117 29.1149 92.5403 29.527C91.641 30.011 90.8295 30.5343 90.1497 31.0152C88.8153 31.959 87.9978 32.7303 87.9807 32.7477C87.8267 32.9043 87.6371 33.0283 87.4347 33.113C87.2257 33.1999 87.0033 33.2461 86.7913 33.2461C86.6151 33.2461 86.4254 33.2173 86.2379 33.1538C86.0646 33.0956 85.8965 33.0079 85.7463 32.8891C85.419 32.6396 85.1944 32.2834 85.1021 31.8947C85.0106 31.509 85.0463 31.0893 85.2345 30.7067L94.1432 12.0388C94.298 11.7423 94.5226 11.4966 94.7911 11.3272C95.0611 11.1578 95.3705 11.0625 95.6963 11.0625C96.0258 11.0625 96.3472 11.1601 96.6202 11.3325ZM96.3516 24.452C96.9645 24.3416 97.5685 24.2645 98.1673 24.2297C98.5295 24.2085 98.8895 24.2025 99.2473 24.2138L95.6993 16.8392L91.2052 26.2813C92.0033 25.8639 92.8066 25.5077 93.6084 25.2143C94.5337 24.8755 95.4524 24.6222 96.3487 24.4536L96.3516 24.452Z" fill="#2C2C2C"/>
</svg>
